PathFileType	4	(X/Y/Z)	C:/Users/opensim2020/Desktop/walking_exp_matlab/subject02_walking14_straight_04.trc																																																																																																																									
DataRate	CameraRate	NumFrames	NumMarkers	Units	OrigDataRate	OrigDataStartFrame	OrigNumFrames																																																																																																																					
100	100	6	41	mm	100	1763	137																																																																																																																					
Frame#	Time	LFHD			RFHD			LBHD			RBHD			C7			T10			CLAV			STRN			RBAK			LSHO			LUPA			LELB			LFRM			LWRA			LWRB			LFIN			RSHO			RUPA			RELB			RFRM			RWRA			RWRB			RFIN			LASI			RASI			LPSI			RPSI			LTHI			LKNE			LTIB			LANK			LHEE			LTOE			RTHI			RKNE			RTIB			RANK			RHEE			RTOE			*39			*40		
		X1	Y1	Z1	X2	Y2	Z2	X3	Y3	Z3	X4	Y4	Z4	X5	Y5	Z5	X6	Y6	Z6	X7	Y7	Z7	X8	Y8	Z8	X9	Y9	Z9	X10	Y10	Z10	X11	Y11	Z11	X12	Y12	Z12	X13	Y13	Z13	X14	Y14	Z14	X15	Y15	Z15	X16	Y16	Z16	X17	Y17	Z17	X18	Y18	Z18	X19	Y19	Z19	X20	Y20	Z20	X21	Y21	Z21	X22	Y22	Z22	X23	Y23	Z23	X24	Y24	Z24	X25	Y25	Z25	X26	Y26	Z26	X27	Y27	Z27	X28	Y28	Z28	X29	Y29	Z29	X30	Y30	Z30	X31	Y31	Z31	X32	Y32	Z32	X33	Y33	Z33	X34	Y34	Z34	X35	Y35	Z35	X36	Y36	Z36	X37	Y37	Z37	X38	Y38	Z38	X39	Y39	Z39	X40	Y40	Z40	X41	Y41	Z41
																																																																																																																												
86	0.85	247.00668	1741.81519	1025.93018	251.63368	1729.20984	1168.90942	114.91956	1670.12366	1025.46924	107.02045	1656.09631	1168.13123	64.65425	1524.5835	1103.42957	31.28275	1248.06702	1133.46057	207.88632	1466.23352	1088.38916	272.72287	1299.35864	1104.1687	21.67693	1351.49597	1183.24194	125.01453	1493.34448	922.68945	125.28014	1291.47095	845.49097	134.78954	1150.07336	832.17456	171.47969	1021.32635	825.58087	253.85522	913.73212	859.79169	207.12854	903.8302	829.87915	241.5761	849.1897	823.48822	147.8058	1508.78857	1285.28088	140.2953	1325.24194	1389.23328	166.56264	1182.87817	1418.69751	210.0994	1073.24902	1446.81714	273.5777	952.92261	1439.3894	228.03947	946.17444	1471.81641	273.51633	890.33917	1480.8761	251.39333	996.1684	995.09235	274.26184	988.04175	1246.2196	51.10004	1035.40234	1091.58972	59.08464	1042.58533	1206.88647	257.42297	683.1059	940.49481	289.85614	498.57935	970.35754	178.49666	349.12369	992.4726	106.16074	141.31572	1034.48645	76.69782	123.68609	1095.19556	226.73424	56.97544	992.65875	188.28745	676.44244	1321.15613	169.16214	465.47977	1283.02722	112.99619	285.2204	1297.07813	75.40289	94.27687	1263.57385	32.54379	41.05486	1212.50366	224.9623	37.26468	1270.01221	149.72882	1812.98438	1116.07336	NaN	NaN	NaN
87	0.86	260.73184	1741.21375	1025.18457	265.7695	1728.68542	1167.97888	128.30899	1669.71521	1025.19507	120.95266	1655.64331	1168.0636	78.1266	1524.24377	1103.98547	44.25963	1247.93494	1135.0376	220.47392	1465.35303	1088.20435	285.48624	1298.47205	1104.40063	35.22486	1351.84851	1185.03931	137.38069	1491.90784	922.75549	134.47531	1290.0498	845.88165	141.11206	1148.61938	832.30048	172.32703	1018.99707	823.53259	251.55299	907.82751	853.85522	203.18956	900.11816	825.64575	235.50011	844.14264	817.46973	162.54654	1508.91711	1285.1582	158.04478	1326.14343	1390.38928	187.05003	1184.04175	1420.51111	233.67091	1075.48755	1448.0083	299.85443	956.55817	1439.11121	255.19313	949.06451	1472.95508	302.39249	894.36908	1480.83752	264.32663	995.88104	997.51459	285.22253	986.56824	1247.85461	63.40121	1035.31726	1091.00793	70.96896	1042.25708	1206.46729	273.76587	684.5545	940.10492	309.57184	499.01697	970.90009	206.54317	342.67508	992.4892	147.16788	130.55727	1034.40735	119.58992	110.75025	1095.18823	273.17572	54.64617	992.86664	194.94067	675.68188	1321.05432	172.55534	464.89822	1282.81616	114.79363	285.27277	1296.74182	75.49267	94.68367	1263.19189	32.56588	41.04947	1212.07922	224.98517	37.12445	1270.04175	163.58423	1812.34326	1115.18604	NaN	NaN	NaN
88	0.87	274.38055	1740.05017	1024.31445	279.91833	1727.92383	1167.02368	141.87909	1668.51355	1024.97131	135.004	1655.10083	1167.83655	91.72065	1523.61133	1104.38416	57.20681	1247.53674	1136.2196	234.60504	1464.35632	1087.78064	298.92041	1297.32117	1104.62476	48.80426	1351.68152	1186.4281	150.0403	1490.1427	922.72003	143.47316	1288.06482	846.16492	147.386	1147.04675	832.36963	173.46602	1016.73352	821.47888	249.06792	902.1795	848.07709	199.48019	896.67621	821.5636	229.10663	839.51263	811.64453	177.21278	1508.66479	1284.99829	175.66208	1326.66138	1391.3811	207.48735	1184.99011	1422.28735	256.92218	1077.35706	1448.83618	326.08972	960.33691	1438.80359	282.32935	951.66211	1473.47095	331.12198	898.38513	1480.46643	278.49493	995.44232	998.94196	296.21225	984.70398	1249.2998	75.59294	1035.07312	1090.27063	82.75198	1041.55603	1205.76917	290.0274	685.75189	939.92719	328.51401	499.15497	971.26422	234.6068	335.93555	992.13525	189.15517	120.11501	1033.62	162.57608	98.49879	1094.28271	320.12704	53.15308	992.50787	201.7838	674.69489	1320.68518	176.16246	464.26834	1282.45874	116.58293	285.29297	1296.39063	75.85227	94.89989	1262.83411	32.53788	41.56784	1211.84167	225.20752	37.08787	1270.13647	177.64865	1811.67542	1114.5575	NaN	NaN	NaN
89	0.88	287.6785	1738.48779	1022.88861	294.04581	1726.88184	1165.91321	155.24684	1667.54382	1024.66724	149.02867	1654.25781	1167.52466	105.31747	1522.91431	1104.80408	70.19582	1246.83301	1136.98352	247.31346	1462.79028	1087.52063	311.20996	1295.47229	1104.81836	62.45036	1351.27966	1187.6626	162.80264	1488.11548	922.62585	152.21695	1286.06152	846.30457	153.71332	1145.43384	832.25543	174.72269	1014.77429	819.4834	246.50272	897.08716	842.40149	195.94788	893.67712	817.54285	222.38452	835.63574	806.22253	191.88994	1508.08167	1284.81836	193.11908	1326.79614	1392.17664	227.81024	1185.88867	1424.19775	280.41272	1079.25171	1449.69434	352.19397	964.08044	1438.23755	309.25827	954.22229	1473.67065	359.76944	902.27289	1479.86316	291.92709	994.34882	1000.2785	307.22498	982.53955	1250.51758	87.99491	1034.43787	1089.23022	94.28199	1040.64368	1204.90173	305.75647	686.55603	939.58606	346.57004	499.00024	971.54376	262.55814	329.17316	991.57458	231.81868	110.34813	1032.20154	206.88303	86.9785	1092.97302	367.20813	52.77924	991.36835	209.07098	673.5755	1320.4884	179.96684	463.55557	1281.95996	118.38203	285.32825	1295.91052	76.4377	94.99268	1262.64063	32.69217	41.86685	1211.44128	225.24593	36.97131	1270.21802	191.72437	1810.69666	1113.79956	NaN	NaN	NaN
90	0.89	301.81494	1737.00183	1021.96283	308.17636	1725.62598	1164.78564	169.04402	1666.1084	1024.20056	163.01324	1653.3938	1167.24011	119.14029	1521.65161	1104.97778	83.18249	1245.86877	1137.33594	260.64481	1461.0675	1087.13147	324.70944	1293.9397	1104.88538	76.07093	1350.66614	1188.74817	175.79562	1485.91797	922.46204	161.82475	1283.66333	846.56482	159.9034	1143.77393	832.07983	175.87956	1012.82495	817.54718	243.39885	892.17578	837.35059	192.27875	891.03278	813.77344	216.0291	832.26941	800.8689	206.53868	1507.28467	1284.47351	210.48138	1326.6521	1392.80908	248.00221	1186.37878	1425.58521	303.68704	1081.01904	1450.11243	377.68872	967.60193	1437.28345	335.91321	956.60529	1473.35828	387.99173	906.43976	1479.02295	305.28952	992.75067	1001.21466	318.29199	980.12341	1251.62903	100.35845	1033.51135	1088.12292	105.74967	1039.36511	1203.8645	320.61404	686.94177	939.24396	363.77631	498.45859	971.71216	290.30045	322.62097	990.90533	274.99927	101.65044	1030.21826	250.9258	76.57749	1090.74585	413.88342	53.49773	989.33643	216.71272	672.30475	1320.47827	183.90384	462.82916	1281.38647	120.28326	285.39844	1295.34509	76.90203	95.30819	1262.22546	32.83238	42.39937	1211.06653	225.34229	36.91472	1270.3667	205.81075	1809.60669	1112.83557	NaN	NaN	NaN
91	0.9	315.4826	1735.21387	1020.90118	322.3548	1724.13879	1163.45435	182.25681	1664.67297	1023.61053	177.12323	1652.04187	1166.44409	132.67986	1520.32959	1104.88867	96.2474	1244.58398	1137.18298	274.3024	1459.177	1086.61426	337.68201	1291.74329	1104.97742	89.76711	1349.61328	1189.3811	188.90018	1483.54785	922.16107	170.75043	1281.57593	846.68402	166.09352	1142.01917	831.81433	177.17114	1011.11871	815.66107	240.37746	887.85065	832.39124	188.8156	889.00586	810.24304	210.04997	829.46729	795.987	221.15831	1506.11621	1284.09973	227.69963	1326.255	1393.24036	268.03137	1186.69226	1426.83252	326.53244	1082.56396	1450.53333	403.53268	971.41852	1436.44629	362.46417	959.27258	1473.29639	415.98633	910.54199	1477.94092	318.93472	990.7926	1001.52722	329.45676	977.51031	1252.62048	113.0491	1032.0885	1086.86609	117.13	1037.76221	1202.62659	335.41431	687.17773	938.90814	380.22223	497.44861	971.76703	317.87375	316.33679	990.25745	318.13544	94.10125	1027.64661	295.89944	67.42133	1088.17261	459.81616	55.32526	986.41516	224.03683	671.16327	1320.047	187.96585	462.17181	1280.83582	122.34311	285.60181	1294.69885	77.28483	95.68553	1261.67896	33.25792	42.61933	1210.2467	225.43671	36.84782	1270.50012	220.00966	1808.0022	1111.65283	NaN	NaN	NaN
